<svg xmlns="http://www.w3.org/2000/svg" width="250" height="64" viewBox="0 0 250 64"><rect x="1" y="1" width="248" height="62" rx="8" fill="#bd4533" stroke="#bd4533" stroke-width="1.5"/><path fill="#fff9eb" transform="translate(25.000 42) scale(0.027000 -0.027000)" d="M312 22 315 -20Q315 -42 303.5 -54.5Q292 -67 279.5 -72.0Q267 -77 257.5 -77.0Q248 -77 223.0 -60.0Q198 -43 172 -18Q110 40 110 64Q110 69 116.5 69.0Q123 69 157.0 46.0Q191 23 248 3L249 270Q198 244 147.0 224.0Q96 204 87.5 204.0Q79 204 65.5 217.0Q52 230 42.5 244.5Q33 259 33 263Q33 270 42.5 270.0Q52 270 82.0 276.0Q112 282 250 332L251 523L148 514Q126 512 110.0 512.0Q94 512 89 516Q68 536 60 561Q59 563 59.0 567.0Q59 571 65 571H68Q84 569 96 569H114Q121 569 130 570L251 579L252 734Q252 758 232 792Q230 795 230 796Q230 803 242.5 803.0Q255 803 279.0 795.0Q303 787 310.0 779.0Q317 771 317 760L316 584L359 587Q374 588 388.0 594.0Q402 600 411.0 600.0Q420 600 433.0 590.5Q446 581 455.0 569.5Q464 558 464 552Q464 540 438 538L315 528L314 356Q355 372 411.0 395.5Q467 419 476.0 419.0Q485 419 485.0 411.0Q485 403 456.0 382.0Q427 361 314 302ZM760 -2 761 -35Q761 -57 746.5 -71.5Q732 -86 718.0 -86.0Q704 -86 681.0 -74.5Q658 -63 630.0 -45.0Q602 -27 576.5 -7.0Q551 13 534.5 29.0Q518 45 518.0 53.0Q518 61 528.0 61.0Q538 61 582.0 38.0Q626 15 695 -4V607L540 598Q534 597 528 597H510Q499 597 479.5 605.0Q460 613 450 653V657Q450 662 454.0 662.0Q458 662 470.0 658.5Q482 655 504 655H513L873 678Q902 680 911.0 683.0Q920 686 925.0 686.0Q930 686 943 677Q978 653 978 636Q978 625 952 623L760 611Z"/><path fill="#fff9eb" transform="translate(52.000 42) scale(0.027000 -0.027000)" d="M340 554Q340 644 336 658L238 653Q231 652 224 652H212Q190 652 180 659Q179 661 171 668Q149 689 149 712Q149 718 155 718Q157 718 167.5 714.5Q178 711 204 711H216L751 739Q774 740 784.0 744.0Q794 748 802.0 748.0Q810 748 824.0 738.0Q838 728 848.5 716.0Q859 704 859 698Q859 686 833 684L674 676V431L831 439Q854 440 864.0 444.0Q874 448 882.0 448.0Q890 448 904.0 438.5Q918 429 928.5 417.0Q939 405 939 398Q939 384 913 382L674 371L675 -74Q675 -100 656 -100Q651 -100 637.5 -95.0Q624 -90 612.5 -79.0Q601 -68 601 -51V-46Q601 -43 605.0 -26.0Q609 -9 609 19V367L397 357Q391 313 379 250Q345 111 257 23Q193 -41 126 -70Q102 -80 99 -80Q92 -80 92.0 -73.0Q92 -66 115 -47Q192 14 240.5 85.0Q289 156 313 247Q327 310 333 354L149 345L123 344Q101 344 91 351Q72 368 66.0 385.0Q60 402 60.0 407.0Q60 412 66 412Q68 412 78.5 408.5Q89 405 115 405H127L336 415Q338 455 339 496ZM405 662Q406 644 406 638V558L405 500Q404 458 402 418L609 428V660Q609 667 608 672Z"/><path fill="#fff9eb" transform="translate(79.000 42) scale(0.027000 -0.027000)" d="M850 -4 853 -41Q853 -60 839.0 -75.5Q825 -91 809.5 -91.0Q794 -91 772.5 -79.5Q751 -68 727.0 -50.5Q703 -33 682.0 -14.5Q661 4 647.5 19.5Q634 35 634.0 42.0Q634 49 643.0 49.0Q652 49 698.5 26.5Q745 4 787 -6L793 678L209 642V-60Q209 -87 189 -87Q188 -87 175.0 -83.5Q162 -80 150.0 -69.0Q138 -58 138.0 -44.5Q138 -31 141.5 -14.0Q145 3 145 32L146 639Q146 677 138.0 690.5Q130 704 130.0 712.5Q130 721 144.5 721.0Q159 721 212 698L804 736H817Q838 736 850.0 724.5Q862 713 862 699L857 680ZM615 425Q636 513 642 587V595Q642 608 639.5 615.5Q637 623 637.0 628.0Q637 633 642.5 633.0Q648 633 662 629Q705 617 705 597Q705 566 690.0 495.5Q675 425 656 370L671 350Q763 227 763 208Q763 198 750.0 186.0Q737 174 726.0 174.0Q715 174 704 193Q689 223 633 306Q597 215 555.0 148.5Q513 82 479.0 46.0Q445 10 435.0 10.0Q425 10 425 18Q425 29 439 47Q538 171 596 358Q539 437 512.5 467.0Q486 497 486.0 503.5Q486 510 498 522Q509 531 515.0 531.0Q521 531 536.0 518.5Q551 506 615 425ZM286 518Q302 518 376 409Q401 492 411 575V579Q411 592 408.0 601.5Q405 611 405 613Q405 620 414.5 620.0Q424 620 437 616Q471 606 471 583V579Q454 466 413 354Q501 225 501.0 211.5Q501 198 487.5 186.5Q474 175 464.0 175.0Q454 175 443 196Q421 238 388 293Q336 173 272 102Q245 72 236.5 72.0Q228 72 228.0 81.0Q228 90 238 106Q304 203 356 346Q309 420 264 474Q261 479 258.5 483.0Q256 487 256.0 493.5Q256 500 268.0 509.0Q280 518 286 518Z"/><path fill="#fff9eb" transform="translate(106.000 42) scale(0.027000 -0.027000)" d="M262 126Q268 167 268 179V188L250 500Q247 540 240.0 553.0Q233 566 233.0 573.5Q233 581 248.0 581.0Q263 581 317 556L397 561Q434 622 442.0 642.5Q450 663 450 675V684L188 667Q170 665 151.5 665.0Q133 665 121.5 676.0Q110 687 103.0 701.5Q96 716 96.0 721.0Q96 726 102 726Q104 726 114.5 723.0Q125 720 147 720H161L795 759Q822 760 835.0 765.5Q848 771 853.5 771.0Q859 771 873 763Q909 740 909 722Q909 712 887 710L502 687Q527 672 527.0 661.5Q527 651 510.5 629.5Q494 608 487 598L463 565L708 580H714Q732 580 749.0 569.0Q766 558 766.0 547.5Q766 537 762.5 531.0Q759 525 758 520L740 215L737 159L736 136V133Q734 114 716 116Q708 116 696 123Q663 140 670.0 166.5Q677 193 680 211V220L693 523L312 503L326 225L331 133L332 110V107Q332 88 312.0 88.0Q292 88 277.0 102.0Q262 116 262 126ZM473 380Q473 403 465.0 413.5Q457 424 457 429Q457 441 470.0 441.0Q483 441 498 438Q541 431 541 405Q540 344 537 309Q523 121 427 36Q355 -27 253 -62Q211 -77 182.5 -83.5Q154 -90 151 -90Q138 -90 138.0 -78.0Q138 -66 160 -58Q257 -23 331.5 29.5Q406 82 435 147Q473 234 473 339ZM867 -41Q867 -59 853.5 -74.5Q840 -90 832.5 -90.0Q825 -90 813 -81Q703 -2 564 70Q548 79 548.0 90.5Q548 102 557.5 116.0Q567 130 579.0 130.0Q591 130 683.5 80.5Q776 31 845 -16Q867 -31 867 -41Z"/><path fill="#fff9eb" transform="translate(133.000 42) scale(0.027000 -0.027000)" d="M290 -27Q295 7 295 35L296 284L184 279Q166 106 103 3Q77 -39 56.5 -58.5Q36 -78 30 -78Q26 -78 26.0 -70.5Q26 -63 48 -20Q100 85 115.5 221.0Q131 357 131 662Q131 688 123.5 701.0Q116 714 116.0 720.5Q116 727 128.5 727.0Q141 727 162.0 719.0Q183 711 188.5 704.5Q194 698 194 684Q192 583 192 490L286 495L290 711Q290 733 281.0 747.5Q272 762 272.0 768.5Q272 775 281.0 775.0Q290 775 307 771Q352 762 352 739V735L342 499Q368 499 381.5 504.5Q395 510 401.0 510.0Q407 510 420 502Q455 483 455 464Q455 454 433 451L191 436L190 387Q190 360 188 332L298 339Q304 340 309 340H317Q332 340 346.5 331.0Q361 322 361 307L356 285L358 -50Q358 -75 344 -75Q342 -75 328.5 -70.5Q315 -66 302.5 -55.0Q290 -44 290 -27ZM831 509 844 510Q855 510 870.5 500.5Q886 491 886 475V474Q886 465 880.5 458.5Q875 452 873 447Q827 284 754 173Q848 42 971 -31Q984 -38 984.0 -44.5Q984 -51 966.5 -67.5Q949 -84 933.5 -84.0Q918 -84 913 -79Q805 5 718 122Q640 22 538 -41Q495 -67 464.0 -80.0Q433 -93 423.5 -93.0Q414 -93 414 -88Q414 -75 438 -61Q583 39 680 177Q621 268 595.5 326.0Q570 384 570 392Q570 405 592 413Q601 416 608 416Q620 416 626 399Q672 303 715 232Q773 332 805 452L546 438Q534 255 470 111Q443 51 419.0 18.5Q395 -14 383 -14Q377 -14 377.0 -3.0Q377 8 397.0 48.5Q417 89 436 158Q487 348 487 565V595Q487 665 472 700Q470 704 470 707Q470 713 483.0 713.0Q496 713 554 686Q688 707 785 742Q804 750 814.5 765.5Q825 781 833.0 780.0Q841 779 852 766Q885 733 881 712Q880 702 866 698Q732 655 556 635V626Q555 574 550 492Z"/><path d="M222 23L222 36M209 23H222M208 37L222 23" fill="none" stroke="#fff9eb" stroke-width="2" stroke-linecap="round" stroke-linejoin="round"/></svg>
