<svg xmlns="http://www.w3.org/2000/svg" width="960" height="138" viewBox="0 0 960 138"><rect width="960" height="138" rx="7" fill="#fff9eb"/><path fill="#ba4835" transform="translate(24.000 36) scale(0.019000 -0.019000)" d="M389 88Q456 169 456.0 365.5Q456 562 380 626Q351 650 318 650Q254 650 199.5 565.5Q145 481 145.0 343.5Q145 206 173 134Q189 93 219.0 69.0Q249 45 301.5 45.0Q354 45 389 88ZM194 647Q251 713 318.0 713.0Q385 713 433 666Q528 573 528 354Q528 199 472 94Q410 -18 296.0 -18.0Q182 -18 124 87Q73 180 73.0 321.0Q73 462 112 566Q128 610 145.0 634.5Q162 659 173.0 659.0Q184 659 194 647Z"/><path fill="#ba4835" transform="translate(35.400 36) scale(0.019000 -0.019000)" d="M315 352Q278 352 233 343Q219 343 209.0 359.0Q199 375 199.0 389.5Q199 404 211 405Q344 418 405 481Q435 512 435 551Q435 651 318 651Q225 651 150 570Q141 557 129 557Q127 557 111.0 567.5Q95 578 95.0 596.0Q95 614 106 623Q192 713 316 713Q401 713 453.0 672.0Q505 631 505.0 564.0Q505 497 470.0 454.0Q435 411 373 392Q419 392 456.0 370.5Q493 349 515.0 310.0Q537 271 537.0 213.0Q537 155 509.0 101.0Q481 47 422.5 14.5Q364 -18 285.0 -18.0Q206 -18 157.0 2.5Q108 23 67 63Q59 71 59.0 86.5Q59 102 69.5 119.5Q80 137 88.5 137.0Q97 137 103 131Q135 91 174.5 68.0Q214 45 277.5 45.0Q341 45 384.0 69.0Q427 93 446.5 132.5Q466 172 466 217Q466 278 423.5 315.0Q381 352 315 352Z"/><path fill="#302a22" transform="translate(24.000 82) scale(0.037000 -0.037000)" d="M443 642 166 626Q159 625 152 625H140Q118 625 108 632Q98 641 87.5 657.5Q77 674 77.0 684.0Q77 694 83 694Q85 694 95.5 690.5Q106 687 132 687H144L813 726Q836 727 846.0 731.0Q856 735 864.0 735.0Q872 735 886.0 725.5Q900 716 910.5 704.0Q921 692 921 684Q921 670 895 668L511 646V469Q519 484 532.5 484.0Q546 484 631.0 433.5Q716 383 755.0 354.0Q794 325 799.0 319.0Q804 313 804.0 306.5Q804 300 798 288Q784 259 768 259Q760 259 746 270Q635 359 519 422L511 427L512 -65Q512 -92 494 -92Q482 -92 467 -83Q435 -66 435 -44V-39Q435 -36 439.0 -16.0Q443 4 443 28Z"/><path fill="#302a22" transform="translate(61.000 82) scale(0.037000 -0.037000)" d="M110 383 837 420Q861 422 871.0 426.0Q881 430 887.0 430.0Q893 430 907.0 421.5Q921 413 932.5 400.5Q944 388 944 378Q944 362 921 360L148 320Q140 319 133 319H121Q101 319 91 326Q74 340 66.5 360.0Q59 380 59.0 385.0Q59 390 62.5 390.0Q66 390 78.0 386.5Q90 383 110 383Z"/><path fill="#302a22" transform="translate(98.000 82) scale(0.037000 -0.037000)" d="M502 -37Q505 -13 505 13V28L492 243Q489 283 483.5 294.5Q478 306 478 311Q478 319 492.5 319.0Q507 319 555 302L638 306L636 718Q636 738 628.0 751.0Q620 764 620.0 770.5Q620 777 628.5 777.0Q637 777 654 774Q701 766 701 741L699 536L842 544Q861 545 873.0 550.0Q885 555 892.5 555.0Q900 555 912 547Q939 528 939 508Q939 495 913 493L699 483L697 308L836 314Q839 315 842 315H852Q858 315 875.5 304.5Q893 294 893.0 282.0Q893 270 889.5 264.5Q886 259 885 253L853 48Q878 17 878.0 7.0Q878 -3 870.5 -5.0Q863 -7 852 -8L570 -15L572 -51V-54Q572 -75 553 -75L540 -72Q502 -60 502 -37ZM146 494Q138 493 131 493H118Q98 493 90 499Q60 526 60 546Q60 553 65.5 553.0Q71 553 81.0 550.5Q91 548 113 548H126L235 555L233 670Q233 687 224.5 701.0Q216 715 216 719Q216 728 234.5 728.0Q253 728 274.5 717.0Q296 706 296 691L294 558L368 563Q397 566 405.5 569.0Q414 572 419.5 572.0Q425 572 438 565Q471 546 471 528Q471 516 449 514ZM57 121Q143 133 265 165Q305 286 318.5 352.5Q332 419 332.0 435.0Q332 451 329.0 459.5Q326 468 326 471Q326 481 338.5 481.0Q351 481 372.0 471.0Q393 461 399.0 455.0Q405 449 405.0 445.0Q405 441 397 408Q374 310 315 179Q375 196 409.0 207.5Q443 219 456.0 219.0Q469 219 469 212Q469 198 389.0 162.5Q309 127 214.0 93.0Q119 59 103.5 59.0Q88 59 75.0 70.0Q62 81 53.0 94.5Q44 108 44.0 114.5Q44 121 57 121ZM212 201Q196 201 191 224Q165 338 128 420Q124 428 124.0 437.0Q124 446 138.5 452.0Q153 458 160 458Q170 458 178 441Q216 362 235.0 298.0Q254 234 254.0 223.5Q254 213 238.0 207.0Q222 201 212 201ZM819 257 554 247 566 41 793 48Z"/><path fill="#302a22" transform="translate(135.000 82) scale(0.037000 -0.037000)" d="M114 -104Q101 -104 101 -90Q101 -80 112.5 -72.5Q124 -65 141.0 -44.5Q158 -24 164 -8Q149 -2 143 1Q117 24 117.0 49.5Q117 75 134.5 88.5Q152 102 174.5 102.0Q197 102 212.5 83.0Q228 64 231 38V30Q231 -14 187.5 -59.0Q144 -104 114 -104Z"/><path fill="#302a22" transform="translate(172.000 82) scale(0.037000 -0.037000)" d="M264 577 467 589V730Q467 752 455.5 765.5Q444 779 444.0 785.5Q444 792 459.0 792.0Q474 792 497.0 784.0Q520 776 526.0 769.5Q532 763 532 750V593L687 603Q717 606 725.5 610.0Q734 614 737.5 614.0Q741 614 754 606Q793 581 793 563Q793 551 769 549L533 534V357L847 374Q878 377 886.0 380.5Q894 384 900.0 384.0Q906 384 919 374Q953 348 953.0 334.0Q953 320 929 318L508 296Q432 170 319 20Q524 43 691 70Q654 112 603 163Q594 172 594.0 180.0Q594 188 608.0 200.0Q622 212 631.0 212.0Q640 212 650 202Q748 110 860 -23Q870 -34 870.0 -42.0Q870 -50 857.5 -66.0Q845 -82 829.0 -82.0Q813 -82 800 -64Q773 -27 729 24Q455 -27 330.5 -41.0Q206 -55 193.5 -55.0Q181 -55 169.0 -40.5Q157 -26 151.5 -10.5Q146 5 146 6Q146 12 154 12H159Q177 9 189 9H206Q212 9 218 10L241 12Q351 160 425 291L142 276Q132 275 125 275H112Q95 275 87 281Q64 301 59.0 316.0Q54 331 54.0 334.5Q54 338 61 338L103 333L467 353V530L304 520Q294 519 287 519H274Q236 519 218 567Q215 573 215.0 577.5Q215 582 222 582Z"/><path fill="#302a22" transform="translate(209.000 82) scale(0.037000 -0.037000)" d="M515 544Q457 451 396 392Q372 368 364.5 368.0Q357 368 357.0 375.0Q357 382 366 397Q484 567 542 752Q545 761 545.0 771.5Q545 782 542.5 789.0Q540 796 540 800Q540 809 549.0 809.0Q558 809 575.5 801.5Q593 794 607.5 782.5Q622 771 622.0 762.5Q622 754 619 748Q586 667 549 601L830 619Q851 620 862.0 625.5Q873 631 881.5 631.0Q890 631 901 622Q928 598 928 581Q928 569 901 567ZM325 299Q349 270 349.0 259.5Q349 249 341.0 247.5Q333 246 321 245L161 239L163 186V184Q163 165 146 165Q135 165 116.0 174.0Q97 183 97 205L101 247L90 522Q88 561 79.5 574.5Q71 588 71.0 594.0Q71 600 83.5 600.0Q96 600 147 581L289 590Q295 591 300 591H309Q329 591 339.5 579.0Q350 567 350.0 558.0Q350 549 347.5 543.5Q345 538 344 533ZM283 533 149 526 158 296 266 299ZM456 422Q476 418 493.0 418.0Q510 418 528 420L769 438H782Q808 438 821.0 423.0Q834 408 834.0 397.5Q834 387 820.5 380.0Q807 373 731.0 305.5Q655 238 606.5 192.0Q558 146 535.0 107.5Q512 69 512 48Q512 14 551.0 4.5Q590 -5 685.5 -5.0Q781 -5 862 6Q880 8 890.0 20.0Q900 32 908.0 65.0Q916 98 926.0 151.5Q936 205 947.5 205.0Q959 205 959.0 141.5Q959 78 953.5 33.0Q948 -12 930.5 -31.0Q913 -50 875 -56Q789 -68 695.0 -68.0Q601 -68 554.0 -63.0Q507 -58 486 -41Q446 -10 446 47Q446 81 472.5 128.5Q499 176 539.0 213.5Q579 251 626.0 293.0Q673 335 720 377L536 363Q518 361 500.0 361.0Q482 361 472.0 370.5Q462 380 453.5 397.5Q445 415 445.0 418.5Q445 422 456 422Z"/><path fill="#302a22" transform="translate(246.000 82) scale(0.037000 -0.037000)" d="M127 188Q116 188 98.0 198.0Q80 208 80 227Q84 259 84 275L75 554Q72 593 67 602Q57 616 57 622Q57 627 69.0 627.0Q81 627 128 610L263 618Q282 618 292.0 606.0Q302 594 302 587Q302 579 299.5 573.0Q297 567 281 313Q305 286 305.0 275.0Q305 264 295.5 262.0Q286 260 141 254L143 208Q143 188 127 188ZM139 308 225 312 237 563 130 557ZM731 -102Q723 -102 703.5 -89.5Q684 -77 684 -53Q690 4 690 37L688 617Q688 693 680.5 711.5Q673 730 673.0 737.0Q673 744 685.0 744.0Q697 744 754 719L902 735Q911 735 927.0 724.5Q943 714 943.0 706.0Q943 698 908.5 619.5Q874 541 841 491Q837 484 837 478Q837 471 853 454Q956 348 956 227Q956 167 931 132Q919 116 904 116Q876 116 821.0 164.0Q766 212 766 229Q766 236 775.0 236.0Q784 236 824 215Q880 186 887 186Q892 186 892 191Q899 219 899 246Q899 302 854 368Q827 411 791 447Q778 460 778 475Q778 489 788 506Q831 574 873 684L746 672L748 -83Q748 -90 743.0 -96.0Q738 -102 731 -102ZM464 349 559 355Q566 428 566 502L482 495Q474 414 464 349ZM485 545 567 550Q569 627 569 691L488 682Q488 595 485 545ZM259 -35Q254 -35 254.0 -26.0Q254 -17 284.5 27.5Q315 72 347.0 141.0Q379 210 399 294Q388 292 382 292Q349 292 338 302Q337 304 326.5 320.0Q316 336 316 342Q316 349 321.0 349.0Q326 349 337.0 346.5Q348 344 374 344L408 345Q418 409 426 492H420Q411 490 393 490Q358 490 342 527L336 540Q336 545 344 545Q370 541 398 541Q414 541 429 542Q431 606 431 678Q375 671 361 671Q346 671 333.5 682.0Q321 693 315.5 705.0Q310 717 310.0 722.0Q310 727 314 727Q319 727 330.0 723.5Q341 720 368 720Q382 720 482.5 731.0Q583 742 590 742Q615 742 624.5 730.5Q634 719 634.0 709.0Q634 699 630.5 692.0Q627 685 627 679Q624 163 589 50Q567 -23 524 -23Q499 -23 443 28Q391 78 391 96Q391 102 398.0 102.0Q405 102 421.5 91.5Q438 81 471.5 64.0Q505 47 515.0 47.0Q525 47 526 56Q546 135 556 305L454 297Q422 165 345 57Q313 13 289.0 -11.0Q265 -35 259 -35Z"/><path fill="#302a22" transform="translate(283.000 82) scale(0.037000 -0.037000)" d="M858 706 870 707Q881 707 898.0 695.0Q915 683 915.0 671.5Q915 660 907.5 654.0Q900 648 895 641Q845 565 810.5 534.0Q776 503 766.0 503.0Q756 503 756 509Q756 520 777.5 551.5Q799 583 827 648L219 615Q196 547 178.5 513.5Q161 480 157.0 475.0Q153 470 144.5 470.0Q136 470 125.5 477.0Q115 484 107.0 492.5Q99 501 99.0 505.5Q99 510 113.5 533.5Q128 557 147.5 607.0Q167 657 181 712Q187 732 205 732Q213 732 228.5 726.5Q244 721 244.0 707.5Q244 694 236 670L466 683L465 756Q465 779 454.5 790.5Q444 802 444 807Q444 815 458.5 815.0Q473 815 490 810Q535 799 535 782L534 687ZM580 198Q593 133 593.0 85.0Q593 37 583.0 -8.5Q573 -54 550.0 -79.5Q527 -105 508 -105Q472 -105 410 -48Q347 7 347 36Q347 42 355.5 42.0Q364 42 400.0 17.5Q436 -7 465.5 -18.5Q495 -30 496 -30Q513 -30 522 36Q526 65 526.0 105.0Q526 145 517 194Q303 38 132 -2Q100 -9 91.5 -9.0Q83 -9 83 -2Q83 11 129.0 33.0Q175 55 234 86Q369 156 502 261Q501 266 499.0 270.5Q497 275 495 280L480 321Q329 210 171 169Q140 161 129.5 161.0Q119 161 119 169Q119 182 153 197Q218 226 293.5 267.0Q369 308 451 375Q441 389 416 412Q316 353 196 325Q181 322 169.0 322.0Q157 322 157 329Q157 341 201.5 359.0Q246 377 307.5 407.0Q369 437 433 488L308 480Q301 479 294 479H281Q256 479 244.0 487.5Q232 496 224.0 512.5Q216 529 216.0 535.0Q216 541 224 541Q227 541 241.0 537.5Q255 534 284 534H299L624 552Q655 553 673.0 559.5Q691 566 701.0 566.0Q711 566 722.0 556.0Q733 546 739.0 535.5Q745 525 745 522Q745 508 713 505L529 494Q489 458 464 441Q518 393 544 324Q614 353 665.0 386.5Q716 420 728 451Q733 464 740.5 464.0Q748 464 756 454Q777 428 777 401Q777 390 772 387Q664 314 560 276Q695 179 814 128Q878 100 955 75Q971 70 971.0 62.5Q971 55 960.0 44.0Q949 33 936.0 24.5Q923 16 919.5 16.0Q916 16 884.0 28.0Q852 40 801 64Q677 120 580 198Z"/><path fill="#302a22" transform="translate(320.000 82) scale(0.037000 -0.037000)" d="M245 543Q265 538 285 538H296L456 547L457 616L233 603L217 602Q204 602 189.5 608.0Q175 614 165 648Q164 650 164.0 653.5Q164 657 168 657H172Q189 653 206 653H215L458 668L459 755Q459 779 450.0 793.0Q441 807 441.0 813.0Q441 819 451.0 819.0Q461 819 484.5 811.0Q508 803 513.5 796.5Q519 790 519 778L518 671L723 684Q749 687 755.5 689.0Q762 691 765.5 691.0Q769 691 781 685Q815 668 815 648Q815 637 792 635L517 619L516 551L643 558Q670 561 676.0 562.5Q682 564 686.5 564.0Q691 564 702 557Q732 538 732 522Q732 512 712 509L515 498V422L837 437Q848 438 861.5 441.5Q875 445 881.0 445.0Q887 445 898 438Q927 420 927 403Q927 390 907 388L413 366Q450 342 450 326Q450 323 444 314L423 290L664 303H674Q691 303 708.5 289.0Q726 275 726.0 261.5Q726 248 717.0 242.0Q708 236 668.0 194.0Q628 152 550 97Q709 16 929 -25Q951 -29 951 -39Q951 -45 944 -57Q924 -89 904 -89Q903 -89 868.5 -81.5Q834 -74 777 -56Q635 -13 501 63Q363 -23 208 -62Q147 -78 111 -83L75 -88Q56 -88 56 -80Q56 -69 84 -62Q289 -3 446 96Q382 136 318 188Q240 123 157 87Q144 81 135.5 81.0Q127 81 127 87Q127 95 145 108Q292 212 368 323Q378 336 378 359V364L129 353Q112 353 100.5 360.0Q89 367 76 400Q75 402 75.0 405.5Q75 409 80 409H84Q100 405 123 405H134L454 420L455 495L314 487L291 486Q278 486 267.0 492.5Q256 499 243 534Q242 536 242.0 539.5Q242 543 245 543ZM358 223Q430 164 495 128Q572 183 623 246L371 235Z"/><path fill="#302a22" transform="translate(357.000 82) scale(0.037000 -0.037000)" d="M267.0 101.0Q290 101 306.5 80.5Q323 60 323.0 38.5Q323 17 310.5 4.0Q298 -9 274.0 -9.0Q250 -9 234.0 10.0Q218 29 218.0 50.5Q218 72 231.0 86.5Q244 101 267.0 101.0ZM300 254V236Q300 224 310 184Q310 168 277.5 168.0Q245 168 239.0 184.5Q233 201 233.0 224.0Q233 247 238.0 280.5Q243 314 264.0 342.5Q285 371 312.5 394.5Q340 418 367 442Q429 497 429 568Q429 604 406.0 629.0Q383 654 333.0 654.0Q283 654 241.0 635.0Q199 616 173.5 589.5Q148 563 135 519Q131 506 116.5 506.0Q102 506 86.0 519.5Q70 533 70.0 543.5Q70 554 72 557Q119 640 183.5 676.5Q248 713 330.0 713.0Q412 713 457.0 676.0Q502 639 502.0 580.5Q502 522 483.0 486.0Q464 450 435.5 423.0Q407 396 377.5 373.0Q348 350 324.0 321.5Q300 293 300 254Z"/><path d="M24 94 Q180 101 318 93" fill="none" stroke="#d19d36" stroke-width="2.5" stroke-linecap="round"/><path fill="#706454" transform="translate(24.000 121) scale(0.018000 -0.018000)" d="M835 521Q814 435 787.0 364.5Q760 294 716 223Q832 77 970 -19Q980 -26 980.0 -31.0Q980 -36 968.5 -46.0Q957 -56 943.5 -64.0Q930 -72 923.0 -72.0Q916 -72 881 -43Q789 33 682 171Q627 92 532.5 13.5Q438 -65 408 -65Q397 -65 397 -57Q397 -46 417 -32Q540 65 644 223Q576 322 531 437Q470 343 427 306Q417 298 411.0 298.0Q405 298 405.0 306.5Q405 315 426.0 348.5Q447 382 485.5 461.0Q524 540 560.5 644.5Q597 749 597 784V791Q597 794 596 798V800Q596 808 606.5 808.0Q617 808 632.5 798.5Q648 789 660.5 776.5Q673 764 673.0 759.0Q673 754 655.5 703.0Q638 652 597 562L832 577Q850 578 865.5 583.5Q881 589 889.0 589.0Q897 589 910.0 579.0Q923 569 932.0 557.0Q941 545 941 539Q941 528 919 526ZM310 231Q124 107 105.0 107.0Q86 107 72.5 117.5Q59 128 42 150Q41 153 39.5 155.5Q38 158 38 159Q38 165 58.5 168.5Q79 172 104 184L133 197L135 631Q135 658 127.5 668.5Q120 679 120 682Q120 690 131.5 690.0Q143 690 158 686Q195 677 195 665L190 222Q219 236 249.5 250.5Q280 265 311 281L314 733Q314 756 307.0 768.5Q300 781 300.0 786.5Q300 792 308.5 792.0Q317 792 332 790Q376 784 376 760L372 -63Q372 -87 352 -87Q339 -87 319.0 -76.5Q299 -66 299 -47Q299 -42 304.0 -13.0Q309 16 309 38ZM570 506 566 499Q609 379 676 279Q731 386 760 517Z"/><path fill="#706454" transform="translate(42.000 121) scale(0.018000 -0.018000)" d="M643 693 796 702Q826 703 840.0 708.0Q854 713 864.0 713.0Q874 713 892.0 697.5Q910 682 910 668Q910 659 887 657L624 642Q617 623 605.0 602.0Q593 581 583.0 581.0Q573 581 573.0 595.0Q573 609 576 621L580 639L418 630L425 573L426 566Q426 549 406.5 549.0Q387 549 373.0 558.0Q359 567 359 583V617Q359 622 358 627L169 616Q162 615 156 615H146Q109 615 92 648Q87 660 87.0 664.5Q87 669 93.0 669.0Q99 669 108.5 666.5Q118 664 137 664L352 676L346 730Q343 750 329.5 763.5Q316 777 316 782Q316 791 332 791Q398 791 401 761L411 680L588 690Q595 737 595.0 760.0Q595 783 589.0 793.5Q583 804 583.0 808.5Q583 813 591.5 813.0Q600 813 621.0 804.0Q642 795 652.5 786.5Q663 778 663.0 769.5Q663 761 643 693ZM741 581Q721 590 721 601Q721 605 725.5 618.5Q730 632 741.0 632.0Q752 632 790.0 615.0Q828 598 868 573Q885 563 885.0 553.0Q885 543 876.0 530.0Q867 517 859.0 517.0Q851 517 819.5 538.0Q788 559 741 581ZM70 254Q98 247 113 247H119L273 255Q276 290 276 327L218 323Q211 322 201.5 319.0Q192 316 184.5 316.0Q177 316 163.5 321.5Q150 327 150 352V363L156 463V470Q156 496 141 519Q139 523 139 524Q139 530 150.0 530.0Q161 530 174 526Q208 517 208 496L202 371L277 376L275 445Q273 481 265.0 500.5Q257 520 257.0 528.0Q257 536 268.5 536.0Q280 536 340 504L601 519Q599 537 587.0 549.0Q575 561 575.0 567.5Q575 574 585.5 574.0Q596 574 617.0 569.5Q638 565 645.5 559.0Q653 553 654 539L656 523L715 526Q740 528 753.0 533.0Q766 538 777.0 538.0Q788 538 806.5 524.0Q825 510 825.0 498.0Q825 486 803 484L664 476Q688 349 737 218Q767 283 779.0 333.5Q791 384 791 394V408Q791 413 790 417V420Q790 428 797.5 428.0Q805 428 818 420Q854 401 854.0 381.5Q854 362 823.0 282.0Q792 202 765 152Q820 34 893 -14Q894 -15 897 -15Q904 -15 905 -9Q924 56 931.0 108.0Q938 160 942.0 166.5Q946 173 950 173Q960 173 961.5 146.5Q963 120 963.0 73.0Q963 26 960.0 -10.5Q957 -47 951.0 -64.0Q945 -81 936.5 -85.5Q928 -90 916.5 -90.0Q905 -90 882.0 -82.0Q859 -74 818.0 -33.0Q777 8 732 96Q669 4 602 -50Q575 -71 567.0 -71.0Q559 -71 559.0 -62.5Q559 -54 576 -34Q652 49 706 151Q642 295 609 473L333 457V418Q333 284 323.5 211.0Q314 138 292.0 81.0Q270 24 246.0 -13.0Q222 -50 203.5 -68.5Q185 -87 180.0 -87.0Q175 -87 175.0 -79.5Q175 -72 181 -60Q220 9 240.5 71.0Q261 133 269 206L209 203Q191 118 163.0 62.5Q135 7 92 -36Q90 -39 87.0 -41.0Q84 -43 77.0 -49.5Q70 -56 63.5 -56.0Q57 -56 57.0 -47.0Q57 -38 78 -5Q133 79 154 200L133 199H124Q80 199 65 243Q64 245 64.0 249.5Q64 254 70 254ZM419 34V21Q419 -1 401 -1Q388 -1 375.0 9.5Q362 20 362.0 28.5Q362 37 365.5 51.5Q369 66 369 86L373 354Q373 390 367.0 405.5Q361 421 361 425Q361 432 371.0 432.0Q381 432 424 412L530 419Q553 422 559.0 424.5Q565 427 571.5 427.0Q578 427 595.5 413.0Q613 399 613.0 391.0Q613 383 606.5 381.0Q600 379 592 378L527 374L525 304L567 307H575Q597 307 607 290Q610 285 610.0 280.0Q610 275 607.5 270.5Q605 266 604 262L589 200Q609 177 609.0 171.0Q609 165 603.0 164.0Q597 163 589 162L526 159L524 81L551 82Q576 85 583.0 88.0Q590 91 593.0 91.0Q596 91 604 84Q628 67 628 53Q628 43 611 41ZM481 371 421 368V298L479 301ZM554 264 420 257V194L545 199ZM482 158 420 155 419 76 480 79Z"/><path fill="#706454" transform="translate(60.000 121) scale(0.018000 -0.018000)" d="M220 -53Q163 28 78 106Q71 113 71.0 122.5Q71 132 79.5 139.5Q88 147 97.5 147.0Q107 147 136 128Q209 83 279 13Q289 4 289.0 -13.5Q289 -31 275.0 -49.5Q261 -68 245.5 -68.0Q230 -68 220 -53Z"/><path fill="#706454" transform="translate(78.000 121) scale(0.018000 -0.018000)" d="M57 480Q77 476 86 476H100Q104 476 108 477L247 492Q253 493 258 493H267Q278 493 292.5 483.0Q307 473 307.0 462.0Q307 451 301 445L290 434Q197 315 197.0 308.5Q197 302 202 299Q278 255 296 224Q303 210 303.0 198.0Q303 186 296 172Q282 146 208 82Q253 80 429 46Q734 -11 951 -11H956Q979 -11 979 -20Q979 -21 974 -35Q958 -75 929 -75H922Q777 -72 635 -48Q384 -7 306.0 10.0Q228 27 181.5 27.0Q135 27 84 9Q75 6 69.0 6.0Q63 6 53.0 12.0Q43 18 43 49Q43 65 72.5 70.5Q102 76 127 79Q176 121 235 192Q237 196 237 197Q237 203 214.0 222.0Q191 241 164.0 258.0Q137 275 137.0 294.5Q137 314 160.5 350.0Q184 386 219 433L127 422Q119 421 112.0 420.0Q105 419 96.5 419.0Q88 419 81 424Q50 455 50 474Q50 480 57 480ZM347 84Q339 84 339.0 92.0Q339 100 355 116Q467 229 510 366L514 389L416 383Q400 381 386.0 381.0Q372 381 354.5 388.5Q337 396 324 433Q323 435 323 440Q323 444 328 444Q332 444 346.0 440.5Q360 437 381 437L597 449L598 583L485 576Q442 512 413.0 486.0Q384 460 376.0 460.0Q368 460 368.0 468.0Q368 476 388.5 506.5Q409 537 442.0 613.0Q475 689 475 728Q475 742 474 748Q474 761 483 761Q491 761 507.0 753.0Q523 745 536.0 733.5Q549 722 549 716Q549 693 516 632L598 637L599 755Q599 782 583 799Q579 803 579.0 808.0Q579 813 588.0 813.0Q597 813 614 810Q663 800 663 778L662 641Q757 647 772.5 651.5Q788 656 793.0 656.0Q798 656 812 648Q848 626 848 609Q848 599 826 596L662 587L661 453Q873 465 883.5 469.5Q894 474 901 474Q907 474 920 464Q953 440 953 425Q953 414 930 412L716 400L714 212Q714 176 720 161Q730 133 795 133Q828 133 848.5 141.0Q869 149 879.0 176.5Q889 204 895.5 254.0Q902 304 918.0 304.0Q934 304 936.5 273.5Q939 243 939 165Q938 144 928 126Q906 77 797 77Q738 77 704.5 87.5Q671 98 659.0 123.5Q647 149 647 192L650 396L582 392Q555 283 499 209Q443 136 378 98Q354 84 347 84ZM234 578Q178 649 117 704Q105 715 105 725Q105 734 120.0 743.5Q135 753 141 753Q146 753 164.5 738.5Q183 724 206.5 702.5Q230 681 252.5 657.5Q275 634 290.0 615.5Q305 597 305 589Q305 580 290.5 565.5Q276 551 265.0 551.0Q254 551 234 578Z"/><path fill="#706454" transform="translate(96.000 121) scale(0.018000 -0.018000)" d="M237 -37Q241 -9 241 16V36L225 627Q223 667 212.5 686.5Q202 706 202.0 713.0Q202 720 218.5 720.0Q235 720 287 695L728 718H735Q749 718 766.5 707.5Q784 697 784 680Q784 674 782.0 669.0Q780 664 779 659L751 64Q779 29 779.0 18.5Q779 8 770.0 6.5Q761 5 747 4L309 -11L310 -52V-57Q310 -82 294 -82Q272 -82 254.5 -66.0Q237 -50 237 -37ZM710 657 290 635 297 381 700 401ZM698 340 299 322 307 49 687 61Z"/><path fill="#706454" transform="translate(114.000 121) scale(0.018000 -0.018000)" d="M80 622Q110 617 122 617L142 618L170 620L169 706Q169 730 161.5 742.0Q154 754 154 757Q154 764 165.0 764.0Q176 764 197.0 758.5Q218 753 223.0 745.5Q228 738 228 722L229 624L374 633L375 731Q375 761 367.5 770.0Q360 779 360.0 784.5Q360 790 370.0 790.0Q380 790 402.0 783.0Q424 776 430.0 769.0Q436 762 436 749V744L433 637Q446 637 457.0 641.0Q468 645 482.5 645.0Q497 645 515.5 629.5Q534 614 534.0 604.0Q534 594 516 592L432 587L424 231Q448 231 465.0 236.0Q482 241 487.0 241.0Q492 241 506 234Q543 217 543 198Q543 185 526 183L138 166L103 165Q77 165 69 173Q41 201 41 218Q41 223 46.5 223.0Q52 223 65.0 220.0Q78 217 100 217H111L175 220L171 570H168Q148 568 127.0 568.0Q106 568 93.5 580.0Q81 592 77 604L73 617Q73 622 80 622ZM872 -6 874 -34Q874 -52 858.0 -67.5Q842 -83 829 -83Q801 -83 710 -14Q662 26 662 44Q662 52 672.0 52.0Q682 52 717.0 32.0Q752 12 811 -9L812 278L635 270Q609 101 538 0Q509 -41 488.0 -58.5Q467 -76 462.5 -76.0Q458 -76 458.0 -67.5Q458 -59 469 -41Q524 47 549.5 136.5Q575 226 583.0 327.0Q591 428 591.0 513.5Q591 599 589.5 636.5Q588 674 580.5 696.0Q573 718 573.0 725.0Q573 732 587.0 732.0Q601 732 657 705L823 716H834Q851 716 864.5 707.0Q878 698 878 683L873 658ZM814 659 652 651V583Q652 548 651 513L813 524ZM373 583 229 574V491L372 499ZM813 471 649 462Q647 385 641 322L812 331ZM371 450 230 443V357L369 364ZM369 315 230 309 231 222 367 228ZM262 93Q194 3 114 -49Q84 -69 75.0 -69.0Q66 -69 66.0 -62.5Q66 -56 76 -46Q197 75 200 136Q202 148 209.5 148.0Q217 148 230 139Q264 115 264 100Q264 97 262 93ZM418 9Q390 49 340 99Q333 106 333.0 114.0Q333 122 346.5 131.5Q360 141 368.0 141.0Q376 141 410.5 105.5Q445 70 462.5 50.0Q480 30 480.0 20.5Q480 11 467.0 0.0Q454 -11 443.0 -11.0Q432 -11 418 9Z"/><path fill="#706454" transform="translate(132.000 121) scale(0.018000 -0.018000)" d="M220 -53Q163 28 78 106Q71 113 71.0 122.5Q71 132 79.5 139.5Q88 147 97.5 147.0Q107 147 136 128Q209 83 279 13Q289 4 289.0 -13.5Q289 -31 275.0 -49.5Q261 -68 245.5 -68.0Q230 -68 220 -53Z"/><path fill="#706454" transform="translate(150.000 121) scale(0.018000 -0.018000)" d="M296 286Q349 294 375.5 298.5Q402 303 416.5 302.0Q431 301 430 293Q429 279 360.0 253.5Q291 228 223.5 211.0Q156 194 145.0 195.0Q134 196 127 202Q108 225 103.0 241.5Q98 258 98 260Q99 269 109 268L124 267Q146 265 166 266Q211 331 248 395Q171 449 95 482Q78 490 76.0 498.0Q74 506 81.0 521.5Q88 537 97.5 539.0Q107 541 126 534Q130 532 133 531Q218 654 236 700Q254 746 254 768V778Q254 789 262 789Q267 789 281 781Q319 758 319 737Q313 712 280 654Q250 600 183 504L207 491Q252 466 280 447L284 453Q358 575 365 606Q367 615 368.0 630.0Q369 645 374.5 645.0Q380 645 393 637Q430 615 431 593Q431 586 428 579Q336 418 238 276Q265 281 296 286ZM247 88Q335 122 387.0 144.5Q439 167 448.0 168.0Q457 169 458 166Q460 144 307.5 59.0Q155 -26 128 -28Q121 -29 107.5 -17.0Q94 -5 84.0 10.0Q74 25 73 33Q73 37 83 38L94 39Q110 40 140 49ZM674 203Q608 299 536 370Q525 381 525 392Q525 404 538.5 411.5Q552 419 557 419Q570 419 684 296Q738 236 738 218Q738 208 724.0 194.5Q710 181 700.0 181.0Q690 181 674 203ZM799 -84Q749 -84 611 31Q595 46 595 55Q595 63 605.0 63.0Q615 63 671.5 34.5Q728 6 775 -7Q785 -7 788 0Q827 124 838 388Q841 463 841 550L552 530Q496 444 464.0 413.5Q432 383 426.0 383.0Q420 383 420 392Q420 400 453.5 453.0Q487 506 535.5 619.5Q584 733 584 773L582 787Q582 798 589 798Q595 798 617 787Q660 768 660 749Q660 736 632.0 678.0Q604 620 586 587L859 606Q882 606 894.5 596.0Q907 586 907 575L904 552Q902 264 865 42Q854 -35 837.0 -59.5Q820 -84 799 -84Z"/><path fill="#706454" transform="translate(168.000 121) scale(0.018000 -0.018000)" d="M845 -5 846 -28Q846 -66 816 -79Q804 -84 796.0 -84.0Q788 -84 759.0 -67.5Q730 -51 680 -8Q630 37 630 56Q630 63 640.0 63.0Q650 63 690.0 38.0Q730 13 782 -5L783 283L593 276L591 259Q572 107 530 24Q506 -25 465 -73Q448 -93 438 -93Q432 -93 432.0 -84.0Q432 -75 448 -48Q490 25 517.0 156.0Q544 287 544 536Q544 673 538.5 697.5Q533 722 528.5 735.5Q524 749 524 754Q524 762 538.0 762.0Q552 762 608 732L796 746H807Q824 746 834 737Q851 725 851 712L846 686ZM437 24 438 -1Q438 -30 419.5 -42.0Q401 -54 390 -54Q366 -54 302.0 -2.0Q238 50 238 77Q238 84 247.0 84.0Q256 84 287.5 64.5Q319 45 374 22L375 274L213 268Q190 113 118 8Q89 -34 66.0 -54.5Q43 -75 37.5 -75.0Q32 -75 32.0 -66.5Q32 -58 56 -18Q120 88 143.0 198.0Q166 308 166 528Q166 646 161.0 676.0Q156 706 151.5 719.5Q147 733 147 738Q147 746 161.5 746.0Q176 746 230 718L388 731H399Q416 731 429.5 722.0Q443 713 443 698L438 672ZM785 685 605 675V608Q605 572 604 536L784 545ZM377 671 227 661V523L376 531ZM784 489 604 481Q602 399 598 331L783 339ZM376 475 226 468Q223 372 219 323L375 330Z"/><path fill="#706454" transform="translate(186.000 121) scale(0.018000 -0.018000)" d="M442 547Q421 478 397 421L703 439H711Q726 439 744.0 430.5Q762 422 762.0 407.5Q762 393 753.5 383.5Q745 374 727.0 341.0Q709 308 669.0 252.5Q629 197 582 147Q748 35 938 -19Q952 -24 952 -34Q952 -41 942 -52Q918 -82 899.5 -82.0Q881 -82 766.5 -27.5Q652 27 539 106Q446 29 321.0 -24.0Q196 -77 155 -77Q139 -77 139 -69Q139 -57 183.0 -39.5Q227 -22 284 8Q408 71 492 143Q406 222 340 308Q248 152 134 54Q90 17 79.0 17.0Q68 17 68.0 25.5Q68 34 101.0 67.5Q134 101 178 160Q270 286 308.5 370.0Q347 454 372 543L194 531Q187 530 180 530H167Q144 530 139.5 534.0Q135 538 127 545Q105 564 105 587Q105 592 110.5 592.0Q116 592 125.0 589.0Q134 586 160 586H172L388 601Q415 715 415.0 741.5Q415 768 410.0 783.5Q405 799 405 802Q405 812 417.0 812.0Q429 812 446 806Q492 792 492 770V767Q478 681 458 605L796 628Q817 629 828.0 633.0Q839 637 847.5 637.0Q856 637 869.5 627.0Q883 617 892.5 605.5Q902 594 902 589Q902 578 878 576ZM369 365Q449 255 534 184Q613 269 672 381Z"/><path fill="#706454" transform="translate(204.000 121) scale(0.018000 -0.018000)" d="M214.5 -33.0Q249 -33 273.0 -9.0Q297 15 297.0 49.5Q297 84 273.0 108.0Q249 132 214.5 132.0Q180 132 155.5 108.0Q131 84 131.0 49.5Q131 15 155.5 -9.0Q180 -33 214.5 -33.0ZM284.5 167.5Q315 149 333.0 118.0Q351 87 351.0 49.5Q351 12 332.5 -19.0Q314 -50 283.0 -68.5Q252 -87 214.5 -87.0Q177 -87 145.5 -68.5Q114 -50 95.5 -19.0Q77 12 77.0 49.5Q77 87 96.0 118.0Q115 149 147.0 167.5Q179 186 216.5 186.0Q254 186 284.5 167.5Z"/><path fill="#706454" transform="translate(222.000 121) scale(0.018000 -0.018000)" d="M886 -22 887 -49Q887 -80 871.0 -93.5Q855 -107 843.0 -107.0Q831 -107 810.0 -95.0Q789 -83 763.5 -65.0Q738 -47 715.0 -27.5Q692 -8 677.0 8.0Q662 24 662.0 31.0Q662 38 671.5 38.0Q681 38 725.0 15.5Q769 -7 820 -24L822 749Q822 773 807 794Q803 801 803 805Q803 814 816.5 814.0Q830 814 854.0 805.5Q878 797 883.0 790.5Q888 784 888 773ZM91 707 116 704Q125 702 135 702H143L479 723Q494 725 502.5 727.5Q511 730 514 730H519Q537 730 556 704Q563 694 563 686Q563 674 540 672L335 659Q275 537 223 459Q297 468 420 491Q408 506 396.5 519.0Q385 532 374.5 544.0Q364 556 364.0 565.0Q364 574 372.0 581.0Q380 588 388.5 591.5Q397 595 401.0 595.0Q405 595 430.5 569.5Q456 544 502.5 479.0Q549 414 549.0 402.5Q549 391 533.0 379.0Q517 367 505.0 367.0Q493 367 483.0 389.5Q473 412 451 447Q313 416 153 394L124 390Q115 390 105.5 401.0Q96 412 90.0 425.5Q84 439 84.0 445.5Q84 452 93 452H98Q116 450 126.0 450.0Q136 450 152 452Q222 565 262 655L153 648H142Q120 648 109 657Q99 667 92.5 681.0Q86 695 86.0 701.0Q86 707 91 707ZM685 151Q685 127 665 127Q649 127 632.5 139.0Q616 151 616 170Q616 173 616.0 176.0Q616 179 618.5 189.5Q621 200 621 235L620 578Q620 601 612.0 614.0Q604 627 604 632Q604 640 615.5 640.0Q627 640 649.5 632.0Q672 624 677.0 618.0Q682 612 682 599ZM66 24Q80 22 87 22Q123 22 281 63L282 218L174 212H162Q139 212 128.0 222.5Q117 233 110.5 247.5Q104 262 104.0 266.0Q104 270 108.0 270.0Q112 270 125.0 267.5Q138 265 155 265H168L283 271V342Q283 360 275.5 372.5Q268 385 268 389Q268 397 279.5 397.0Q291 397 306 394Q346 385 346 365L345 273L434 278Q459 280 468.0 283.5Q477 287 483.5 287.0Q490 287 502 280Q530 261 530 243Q530 230 505 228L345 220L343 80Q420 100 480.0 118.5Q540 137 554.0 137.0Q568 137 568 128Q568 116 541 105Q339 24 227.0 -9.5Q115 -43 102.5 -43.0Q90 -43 77.5 -29.0Q65 -15 58.0 0.0Q51 15 51 17Q51 24 61 24Z"/><path fill="#706454" transform="translate(240.000 121) scale(0.018000 -0.018000)" d="M263 645 499 659 498 757Q498 777 488.5 788.0Q479 799 479.0 805.0Q479 811 493 811L504 810Q562 798 562 777L560 662L766 674Q786 675 802.0 681.0Q818 687 824.5 687.0Q831 687 845.0 679.0Q859 671 870.0 659.5Q881 648 881 640Q881 624 856 622L264 588Q262 337 215.0 188.0Q168 39 72 -65Q56 -82 47 -82Q41 -82 41.0 -73.0Q41 -64 51 -48Q178 160 191 432Q194 497 194 539V580Q194 613 187.0 639.0Q180 665 180.0 671.5Q180 678 191.0 678.0Q202 678 263 645ZM398 -47 400 -74V-77Q400 -98 381 -98Q359 -98 344.0 -84.0Q329 -70 329 -58V-52Q330 -42 331.0 -32.0Q332 -22 332 -14V-3Q332 1 331 5L316 173Q313 212 306.5 225.0Q300 238 300 241Q300 248 313.5 248.0Q327 248 379 231L506 237L504 522Q504 542 496.5 555.5Q489 569 489.0 574.5Q489 580 500.0 580.0Q511 580 528 577Q570 569 570 545L569 425L753 435Q772 436 784.0 441.0Q796 446 803.5 446.0Q811 446 822 438Q850 419 850 399Q850 385 824 383L568 371L566 239L746 247Q749 248 752 248H764Q774 248 789.0 234.5Q804 221 804.0 212.5Q804 204 800.5 198.5Q797 193 795 187L764 15Q789 -16 789.0 -25.5Q789 -35 781.5 -37.0Q774 -39 763 -40ZM728 191 378 177 393 8 703 15Z"/><path fill="#706454" transform="translate(258.000 121) scale(0.018000 -0.018000)" d="M217 589Q217 627 211.5 643.5Q206 660 206.0 669.5Q206 679 222.0 679.0Q238 679 288 654Q415 679 509 711Q674 768 707 801Q711 805 717.0 805.0Q723 805 735 796Q767 772 767 750Q767 739 752 732Q513 635 286 605Q285 575 284.5 544.0Q284 513 282 481L816 511Q847 514 855.5 517.5Q864 521 869.0 521.0Q874 521 888 512Q924 486 924 469Q924 457 898 455L279 422Q275 360 263.5 291.5Q252 223 220.5 156.5Q189 90 152.5 41.5Q116 -7 85.5 -34.0Q55 -61 46.0 -61.0Q37 -61 37.0 -52.0Q37 -43 63.0 -11.0Q89 21 120 76Q185 196 201 306Q217 402 217 589ZM345 -53Q348 -32 348 -26V2Q348 8 347 15L332 212Q330 247 321.5 262.5Q313 278 313.0 285.0Q313 292 327.5 292.0Q342 292 395 271L749 291H761Q787 291 799.5 277.0Q812 263 812.0 255.0Q812 247 808.5 241.5Q805 236 804 231L775 32Q801 0 801.0 -10.0Q801 -20 792.0 -21.5Q783 -23 769 -24L414 -34L417 -70V-73Q417 -97 397.5 -97.0Q378 -97 361.5 -84.0Q345 -71 345 -53ZM735 233 396 216 410 21 712 32Z"/><path fill="#706454" transform="translate(276.000 121) scale(0.018000 -0.018000)" d="M114 -104Q101 -104 101 -90Q101 -80 112.5 -72.5Q124 -65 141.0 -44.5Q158 -24 164 -8Q149 -2 143 1Q117 24 117.0 49.5Q117 75 134.5 88.5Q152 102 174.5 102.0Q197 102 212.5 83.0Q228 64 231 38V30Q231 -14 187.5 -59.0Q144 -104 114 -104Z"/><path fill="#706454" transform="translate(294.000 121) scale(0.018000 -0.018000)" d="M288 10 290 -31Q290 -57 272.5 -72.5Q255 -88 241.0 -88.0Q227 -88 200.5 -71.0Q174 -54 133.5 -8.0Q93 38 93 50Q93 55 100.0 55.0Q107 55 140.0 34.0Q173 13 226 -9L227 260Q221 257 202.5 246.5Q184 236 143.0 215.5Q102 195 92 195Q71 195 44 226Q32 240 32.0 247.0Q32 254 45 255Q83 258 228 319L229 513L142 506Q130 505 120.0 504.0Q110 503 99.0 503.0Q88 503 76.0 515.0Q64 527 59.0 540.5Q54 554 54.0 558.0Q54 562 61 562H64Q79 559 90 559H107Q114 559 122 560L229 567L230 737Q230 766 213 791Q210 796 210 799Q210 806 219.5 806.0Q229 806 246 802Q293 791 293 764L292 572L325 574Q339 575 353.0 581.0Q367 587 373.0 587.0Q379 587 392 579Q426 558 426 540Q426 528 401 526L291 518L290 347Q320 361 363.0 383.0Q406 405 414.0 405.0Q422 405 422 397Q422 377 290 297ZM847 391Q873 363 873.0 353.0Q873 343 865.5 340.5Q858 338 845 337L509 321L507 70Q507 54 510.5 43.0Q514 32 534.5 22.0Q555 12 664.5 12.0Q774 12 852 26Q872 30 883.5 42.5Q895 55 903.5 87.5Q912 120 921.0 174.0Q930 228 944.0 228.0Q958 228 959 180V149Q959 91 955.5 51.5Q952 12 934.5 -9.5Q917 -31 874 -37Q786 -49 697.5 -49.0Q609 -49 527 -42Q487 -38 465.5 -12.5Q444 13 444 56V59L449 632Q449 663 441.5 681.0Q434 699 434 704Q434 712 447.0 712.0Q460 712 512 688L826 708L843 709Q856 709 868.0 698.0Q880 687 880.0 677.0Q880 667 876.0 660.5Q872 654 871 646ZM804 651 685 644 681 384 786 389ZM625 640 511 633 509 376 621 381Z"/><path fill="#706454" transform="translate(312.000 121) scale(0.018000 -0.018000)" d="M247 424 133 413Q127 412 122 412H111Q84 412 66.5 431.0Q49 450 49.0 460.0Q49 470 56 470Q82 466 92 466H105Q109 466 113 467L282 485Q290 485 306.5 474.5Q323 464 323.0 453.5Q323 443 316 437L309 430L296 106Q315 118 370.0 158.0Q425 198 437.0 198.5Q449 199 449.5 193.0Q450 187 432.0 168.0Q414 149 358.0 89.5Q302 30 277.0 15.5Q252 1 240.5 -0.5Q229 -2 211.5 9.0Q194 20 180.5 33.5Q167 47 166 53Q166 58 185.5 61.5Q205 65 234 76ZM464 421Q437 421 418.5 433.5Q400 446 394 483Q394 488 396.5 488.0Q399 488 409.5 483.5Q420 479 444 479H457L638 488V749Q638 778 624 792Q620 797 620 802Q620 810 633.5 810.0Q647 810 668.0 803.5Q689 797 694.5 791.5Q700 786 700 773V492L854 500Q888 503 897.0 506.5Q906 510 910.0 510.0Q914 510 926 501Q961 475 961 459Q961 448 939 446L700 433V-72Q700 -98 682 -98Q680 -98 666.5 -93.5Q653 -89 640.5 -78.0Q628 -67 628.0 -55.0Q628 -43 632.5 -25.0Q637 -7 637 21L638 430L485 422Q480 421 474 421ZM305 591Q249 661 188 715Q176 726 176.0 732.5Q176 739 184.5 751.0Q193 763 203.5 763.0Q214 763 233.0 748.5Q252 734 277.0 712.5Q302 691 325.0 668.0Q348 645 363.5 627.5Q379 610 379.0 601.0Q379 592 363.5 579.0Q348 566 336.0 566.0Q324 566 305 591Z"/><path fill="#706454" transform="translate(330.000 121) scale(0.018000 -0.018000)" d="M895 -19 897 -53Q897 -71 881.5 -88.5Q866 -106 851.0 -106.0Q836 -106 815.0 -93.0Q794 -80 769.0 -60.5Q744 -41 722.0 -20.0Q700 1 685.5 17.5Q671 34 671.0 40.0Q671 46 680.0 46.0Q689 46 733.5 23.0Q778 0 830 -21V748Q830 770 820.5 784.0Q811 798 811.0 804.5Q811 811 824.5 811.0Q838 811 861.0 802.5Q884 794 889.5 788.0Q895 782 895 771ZM656 569Q656 593 643 614Q640 620 640 623Q640 631 651.5 631.0Q663 631 684.0 623.5Q705 616 709.5 609.5Q714 603 714 592L713 150Q713 129 697 129Q676 129 661.5 142.5Q647 156 647 170V175Q647 178 650.0 191.5Q653 205 653 236ZM452 400V417Q453 433 463 434Q467 434 481 426Q520 404 520 379Q519 373 501 340Q451 246 382 162Q429 66 504 3Q507 1 511 1Q531 1 566 150L570 166Q572 183 578.0 191.0Q584 199 589 199Q604 199 603 166L602 162Q597 59 575 -21Q568 -46 558.5 -60.5Q549 -75 532.0 -75.0Q515 -75 484.5 -59.0Q454 -43 416.5 -2.0Q379 39 340 115Q269 40 176 -21Q92 -74 74 -74Q65 -75 65.5 -67.5Q66 -60 80 -49Q230 67 315 167Q271 259 237 439L151 425Q141 423 128 423Q106 422 85 462L83 468Q83 475 92 475H94Q99 474 103 474L111 475Q126 475 144 478L229 492Q212 598 208 724Q207 753 185 769Q180 772 180.0 777.0Q180 782 205.5 782.5Q231 783 248.5 775.5Q266 768 266 754V752Q271 613 286 501L494 536Q511 539 521.0 543.5Q531 548 538.5 548.5Q546 549 556 541Q583 521 581 510Q581 496 555 493L294 448Q312 348 357 222Q405 287 428.5 336.0Q452 385 452 400ZM347 711Q334 723 334.0 732.0Q334 741 346.0 751.0Q358 761 364.5 761.0Q371 761 396.0 742.0Q421 723 462.0 680.0Q503 637 503.0 624.5Q503 612 489.0 600.0Q475 588 466.0 588.0Q457 588 431.5 623.5Q406 659 347 711Z"/><path fill="#706454" transform="translate(348.000 121) scale(0.018000 -0.018000)" d="M262 739Q262 724 253 699L829 734H844Q863 734 877.5 723.0Q892 712 892.0 701.0Q892 690 885.5 683.0Q879 676 865.0 653.5Q851 631 822 596Q758 519 740 519Q733 519 733.0 529.5Q733 540 757.5 583.5Q782 627 803 674L236 641Q213 570 177 496Q168 476 156 476Q155 476 144 480Q112 494 112 510Q112 517 128 546Q182 650 204 740Q207 750 210.5 755.5Q214 761 224 761Q262 761 262 739ZM729 214Q736 257 745 323L328 303Q316 302 307.5 299.0Q299 296 288.0 296.0Q277 296 262.0 306.0Q247 316 247 330Q247 333 253.5 351.5Q260 370 271.5 408.0Q283 446 293.0 484.0Q303 522 309.0 550.0Q315 578 315.0 584.5Q315 591 310 621Q310 630 319 630Q325 630 340 624Q380 607 380 583V579Q377 566 371.5 548.5Q366 531 360 509L608 523Q647 526 664.0 531.5Q681 537 689.0 537.0Q697 537 710.5 530.0Q724 523 734.5 512.5Q745 502 745.0 490.0Q745 478 727 476L345 454Q329 396 317 360L758 380H765Q795 380 807.0 367.0Q819 354 819.0 345.5Q819 337 815.0 329.5Q811 322 807.5 291.5Q804 261 796 216L786 161Q738 -98 657 -98Q633 -98 582 -68Q438 18 438 50Q438 57 449.5 57.0Q461 57 491 40Q571 -5 642 -20Q645 -21 649 -21Q662 -21 682.5 37.5Q703 96 718 158ZM156 137Q134 135 116.5 135.0Q99 135 87.0 146.5Q75 158 69.0 170.5Q63 183 61.5 186.0Q60 189 60.0 194.0Q60 199 65.0 199.0Q70 199 80.0 195.5Q90 192 125 192H140L520 206Q548 207 572.5 213.0Q597 219 604.5 219.0Q612 219 625 211Q657 193 657.0 175.5Q657 158 640 156Z"/><path fill="#706454" transform="translate(366.000 121) scale(0.018000 -0.018000)" d="M239 528Q239 484 234 406L403 418Q408 419 411 419H425Q436 419 447.5 408.0Q459 397 459.0 389.0Q459 381 456.5 375.5Q454 370 452.5 350.0Q451 330 440.0 244.0Q429 158 408 95Q401 74 385.0 59.5Q369 45 353.5 45.0Q338 45 317 67Q269 117 247.0 149.5Q225 182 225.0 189.0Q225 196 232.5 196.0Q240 196 270.5 172.5Q301 149 343 123L344 122H345Q353 122 369.5 200.5Q386 279 392 364L230 353Q218 220 187.5 141.0Q157 62 127.5 12.5Q98 -37 74.0 -65.0Q50 -93 41.5 -93.0Q33 -93 33.0 -85.0Q33 -77 40 -64Q150 124 167 349Q174 444 174.0 503.5Q174 563 166.5 581.5Q159 600 159.0 606.0Q159 612 170.0 612.0Q181 612 243 584L496 600Q479 684 473.0 729.5Q467 775 462.5 783.0Q458 791 447 802Q442 809 442 811Q442 820 458.0 820.0Q474 820 494.5 814.5Q515 809 520.5 802.0Q526 795 534.0 734.5Q542 674 557 604L758 617Q789 620 799.0 623.5Q809 627 816.5 627.0Q824 627 836 618Q868 597 868 580Q868 569 846 567L569 549Q601 404 660 275Q660 276 679.5 303.5Q699 331 720 372Q753 430 753 457Q753 465 752 468V471Q752 483 761.5 483.0Q771 483 786 474Q825 452 825 436Q825 424 779.5 347.0Q734 270 690 214Q770 66 860 -11Q863 -14 866.0 -14.0Q869 -14 871 -9Q904 76 923 175Q929 204 940.0 204.0Q951 204 951 177V172Q949 54 929 -46Q920 -95 886 -95Q845 -95 816.0 -68.0Q787 -41 762 -10Q693 80 645 165Q573 83 485.0 17.5Q397 -48 375 -48Q367 -48 367 -42Q367 -33 383 -21Q508 79 617 220Q607 238 573.5 318.0Q540 398 508 545ZM596 734Q582 742 582.0 749.5Q582 757 588.0 770.0Q594 783 606.5 783.0Q619 783 659.0 761.5Q699 740 746 706Q763 694 763 683Q763 681 759.0 670.5Q755 660 748.5 651.0Q742 642 733.5 642.0Q725 642 691.0 671.0Q657 700 596 734Z"/><path fill="#706454" transform="translate(384.000 121) scale(0.018000 -0.018000)" d="M46 312Q66 307 95 307H108L497 329Q492 410 484 466L288 450Q274 448 257.0 448.0Q240 448 227.0 460.0Q214 472 208.5 485.0Q203 498 203.0 501.5Q203 505 209 505H213Q231 502 248 502L477 519Q466 593 451 649Q308 622 201 613H194Q173 613 173.0 621.5Q173 630 197 636Q466 699 660 771Q680 779 688.5 792.0Q697 805 704.0 805.0Q711 805 722.0 791.5Q733 778 741.0 762.0Q749 746 749.0 736.5Q749 727 738 723Q637 690 514 663Q530 603 542 524L704 537Q721 539 733.0 543.5Q745 548 750.0 548.0Q755 548 768 540Q801 517 801 501Q801 491 779 489L549 471Q558 401 564 332L861 349Q882 351 893.0 355.5Q904 360 910.0 360.0Q916 360 930.0 350.5Q944 341 955.5 328.5Q967 316 967 308Q967 296 940 294L568 274Q571 216 571.0 153.0Q571 90 566.5 19.0Q562 -52 541.0 -74.5Q520 -97 505.5 -97.0Q491 -97 449.5 -78.5Q408 -60 342 -16Q274 32 274 49Q274 56 286.5 56.0Q299 56 348.0 32.0Q397 8 476 -10H479Q494 -10 500 126Q501 163 501 190V234Q501 253 500 271L130 251L100 250Q89 250 71.5 256.5Q54 263 40 300Q39 302 39.0 307.0Q39 312 46 312Z"/><path fill="#706454" transform="translate(402.000 121) scale(0.018000 -0.018000)" d="M375 -13Q340 63 296 119Q286 132 286.0 141.0Q286 150 300.5 157.5Q315 165 320.0 165.0Q325 165 339.0 151.0Q353 137 370.0 115.5Q387 94 402.0 71.0Q417 48 427.0 29.5Q437 11 437.0 0.0Q437 -11 421.5 -21.5Q406 -32 395.5 -32.0Q385 -32 375 -13ZM420 701 415 679 408 259 409 198Q409 178 394 178Q383 178 366.0 188.0Q349 198 349.0 208.5Q349 219 351.5 232.0Q354 245 357 678L164 668L170 296V247L171 186Q171 166 155 166Q145 166 127.5 176.0Q110 186 110.0 196.5Q110 207 113.0 220.0Q116 233 116 263V296L109 662Q109 693 101.0 709.0Q93 725 93.0 733.0Q93 741 103.0 741.0Q113 741 166 720L369 732H380Q399 732 409.5 722.5Q420 713 420 701ZM91 -55Q82 -60 72.5 -60.0Q63 -60 63.0 -50.0Q63 -40 75 -30Q162 39 198 126Q218 176 227.5 242.5Q237 309 237 537Q237 550 230.5 560.0Q224 570 224 574Q224 584 239.0 584.0Q254 584 271.0 577.0Q288 570 293.0 564.5Q298 559 298 550Q296 325 288.0 254.5Q280 184 260 128Q217 13 91 -55ZM731 112Q731 94 665.5 35.0Q600 -24 559.0 -49.0Q518 -74 505.5 -74.0Q493 -74 480.0 -58.5Q467 -43 462.5 -38.0Q458 -33 458.0 -27.0Q458 -21 474.5 -19.0Q491 -17 523 -2Q525 -1 526 0L527 356Q519 354 512 354H499Q476 354 461.5 365.5Q447 377 441.0 391.0Q435 405 435.0 411.0Q435 417 439.5 417.0Q444 417 455.5 414.5Q467 412 487 412L527 415V708Q527 732 518.5 748.0Q510 764 510 767Q510 775 522.0 775.0Q534 775 551.0 768.5Q568 762 577.5 752.5Q587 743 587 728L586 420L826 440Q855 443 866.5 447.0Q878 451 886.5 451.0Q895 451 908.5 441.0Q922 431 932.0 419.5Q942 408 942 401Q942 389 918 386L700 369Q789 143 961 2Q971 -5 971.0 -9.0Q971 -13 961 -23Q932 -53 916 -53Q910 -53 902 -46Q803 46 740 156Q684 253 639 365L586 361L585 33Q658 76 682 94Q716 119 723.5 119.0Q731 119 731 112ZM859 672Q767 562 709.5 525.5Q652 489 629.5 484.5Q607 480 606 487Q604 497 627 514Q701 573 787 689Q798 704 799.5 722.0Q801 740 811 742Q816 743 829.0 734.5Q842 726 853.0 714.0Q864 702 865.5 692.0Q867 682 859 672Z"/><path fill="#706454" transform="translate(420.000 121) scale(0.018000 -0.018000)" d="M214.5 -33.0Q249 -33 273.0 -9.0Q297 15 297.0 49.5Q297 84 273.0 108.0Q249 132 214.5 132.0Q180 132 155.5 108.0Q131 84 131.0 49.5Q131 15 155.5 -9.0Q180 -33 214.5 -33.0ZM284.5 167.5Q315 149 333.0 118.0Q351 87 351.0 49.5Q351 12 332.5 -19.0Q314 -50 283.0 -68.5Q252 -87 214.5 -87.0Q177 -87 145.5 -68.5Q114 -50 95.5 -19.0Q77 12 77.0 49.5Q77 87 96.0 118.0Q115 149 147.0 167.5Q179 186 216.5 186.0Q254 186 284.5 167.5Z"/></svg>
